<svg xmlns="http://www.w3.org/2000/svg" xmlns:xlink="http://www.w3.org/1999/xlink" width="300" zoomAndPan="magnify" viewBox="0 0 224.87999 149.999998" height="200" preserveAspectRatio="xMidYMid meet" version="1.0"><defs><clipPath id="1c95319a55"><path d="M 0 0.0390625 L 224.761719 0.0390625 L 224.761719 149.960938 L 0 149.960938 Z M 0 0.0390625 " clip-rule="nonzero"/></clipPath><clipPath id="53668d4bdc"><path d="M 42 0.0390625 L 178 0.0390625 L 178 91 L 42 91 Z M 42 0.0390625 " clip-rule="nonzero"/></clipPath><clipPath id="bb6f758726"><path d="M 37.480469 27 L 187.398438 27 L 187.398438 149.960938 L 37.480469 149.960938 Z M 37.480469 27 " clip-rule="nonzero"/></clipPath></defs><g clip-path="url(#1c95319a55)"><path fill="#ffffff" d="M 0 0.0390625 L 224.878906 0.0390625 L 224.878906 149.960938 L 0 149.960938 Z M 0 0.0390625 " fill-opacity="1" fill-rule="nonzero"/><path fill="#ffffff" d="M 0 0.0390625 L 224.878906 0.0390625 L 224.878906 149.960938 L 0 149.960938 Z M 0 0.0390625 " fill-opacity="1" fill-rule="nonzero"/></g><g clip-path="url(#53668d4bdc)"><path fill="#ffffff" d="M 48.425781 89.566406 C 75.125 84.144531 106.597656 69.199219 132.609375 49.582031 C 148.246094 37.785156 160.574219 25.839844 168.265625 17.761719 L 173.421875 21.789062 C 174.144531 22.351562 175.203125 21.898438 175.292969 20.984375 L 177.210938 1.3125 C 177.292969 0.46875 176.464844 -0.179688 175.664062 0.105469 L 157.042969 6.75 C 156.183594 7.058594 156 8.195312 156.71875 8.757812 L 161.726562 12.667969 C 154.226562 20.496094 142.484375 31.808594 127.644531 43 C 102.566406 61.910156 72.335938 76.300781 46.785156 81.484375 L 43.824219 82.085938 C 43.230469 82.207031 42.839844 82.789062 42.964844 83.386719 L 44.164062 89.304688 C 44.285156 89.902344 44.871094 90.289062 45.464844 90.167969 L 48.425781 89.570312 Z M 48.425781 89.566406 " fill-opacity="1" fill-rule="nonzero"/></g><g clip-path="url(#bb6f758726)"><path fill="#ffffff" d="M 72.148438 141.71875 L 83.648438 141.71875 C 83.648438 141.71875 83.648438 90.582031 83.648438 90.582031 C 83.648438 90.132812 83.925781 89.730469 84.34375 89.5625 C 92.878906 86.140625 100.660156 82.601562 106.339844 79.8125 C 106.484375 79.742188 106.648438 79.851562 106.648438 80.011719 L 106.648438 141.714844 C 106.648438 141.714844 118.144531 141.714844 118.144531 141.714844 L 118.144531 74.125 C 118.144531 73.734375 118.355469 73.375 118.695312 73.179688 C 126.214844 68.851562 133.636719 64.113281 140.800781 59.066406 C 140.949219 58.964844 141.148438 59.066406 141.148438 59.25 L 141.148438 141.710938 C 141.148438 141.710938 152.644531 141.710938 152.644531 141.710938 L 152.644531 50.785156 C 152.644531 50.453125 152.792969 50.144531 153.054688 49.9375 C 161.035156 43.601562 168.613281 35.394531 175.265625 28.015625 C 175.402344 27.867188 175.648438 27.964844 175.648438 28.167969 L 175.648438 141.714844 C 175.648438 141.714844 186.308594 141.714844 186.308594 141.714844 C 186.914062 141.714844 187.40625 142.210938 187.40625 142.816406 L 187.40625 148.859375 C 187.40625 149.464844 186.914062 149.960938 186.308594 149.960938 L 38.578125 149.960938 C 37.96875 149.960938 37.476562 149.464844 37.476562 148.859375 L 37.476562 142.816406 C 37.476562 142.210938 37.96875 141.714844 38.578125 141.714844 L 49.152344 141.714844 C 49.152344 141.714844 49.152344 101.4375 49.152344 101.4375 C 49.152344 100.910156 49.511719 100.46875 50.027344 100.367188 C 56.863281 99.039062 64.398438 96.828125 71.859375 94.238281 C 72 94.1875 72.148438 94.292969 72.148438 94.445312 Z M 72.148438 141.71875 " fill-opacity="1" fill-rule="nonzero"/></g></svg>