<svg xmlns="http://www.w3.org/2000/svg" xmlns:xlink="http://www.w3.org/1999/xlink" width="300" zoomAndPan="magnify" viewBox="0 0 224.87999 149.999998" height="200" preserveAspectRatio="xMidYMid meet" version="1.0"><defs><clipPath id="c03bd4c9ce"><path d="M 0 0.0390625 L 224.761719 0.0390625 L 224.761719 149.960938 L 0 149.960938 Z M 0 0.0390625 " clip-rule="nonzero"/></clipPath><clipPath id="ca8d6cbf3b"><path d="M 37.480469 0.0390625 L 187.398438 0.0390625 L 187.398438 149.960938 L 37.480469 149.960938 Z M 37.480469 0.0390625 " clip-rule="nonzero"/></clipPath><clipPath id="ac5f016664"><path d="M 37.480469 0.0390625 L 187.398438 0.0390625 L 187.398438 149.960938 L 37.480469 149.960938 Z M 37.480469 0.0390625 " clip-rule="nonzero"/></clipPath></defs><g clip-path="url(#c03bd4c9ce)"><path fill="#ffffff" d="M 0 0.0390625 L 224.878906 0.0390625 L 224.878906 149.960938 L 0 149.960938 Z M 0 0.0390625 " fill-opacity="1" fill-rule="nonzero"/><path fill="#ffffff" d="M 0 0.0390625 L 224.878906 0.0390625 L 224.878906 149.960938 L 0 149.960938 Z M 0 0.0390625 " fill-opacity="1" fill-rule="nonzero"/></g><g clip-path="url(#ca8d6cbf3b)"><path fill="#ffffff" d="M 63.574219 101.367188 C 57.519531 101.367188 51.84375 103.714844 47.546875 108.007812 C 38.703125 116.855469 38.703125 131.25 47.546875 140.089844 C 51.832031 144.375 57.527344 146.738281 63.585938 146.738281 C 69.648438 146.734375 75.34375 144.375 79.628906 140.089844 C 84.039062 135.679688 86.398438 129.8125 86.265625 123.574219 C 86.121094 116.503906 88.679688 110.800781 94.558594 105.074219 L 142.644531 56.984375 C 148.355469 51.121094 154.0625 48.5625 161.128906 48.710938 C 167.375 48.84375 173.238281 46.484375 177.648438 42.070312 C 180.414062 39.304688 182.382812 35.945312 183.429688 32.242188 L 167.75 36.441406 C 167.226562 36.582031 166.671875 36.457031 166.261719 36.105469 L 157.015625 28.21875 C 156.503906 27.78125 156.3125 27.066406 156.535156 26.429688 L 160.601562 14.980469 C 160.78125 14.472656 161.199219 14.082031 161.71875 13.941406 L 177.398438 9.746094 C 168.53125 1.148438 154.328125 1.230469 145.570312 9.992188 C 141.15625 14.402344 138.796875 20.269531 138.929688 26.511719 C 139.078125 33.578125 136.519531 39.28125 130.636719 45.011719 L 82.554688 93.09375 C 76.84375 98.960938 71.132812 101.527344 64.070312 101.375 C 63.90625 101.371094 63.738281 101.367188 63.574219 101.367188 Z M 63.585938 150.011719 C 56.65625 150.011719 50.136719 147.308594 45.230469 142.40625 C 35.109375 132.285156 35.109375 115.820312 45.230469 105.699219 C 50.28125 100.648438 57 97.945312 64.136719 98.101562 C 70.300781 98.222656 75.113281 96.042969 80.222656 90.796875 L 128.339844 42.679688 C 133.601562 37.554688 135.785156 32.746094 135.65625 26.578125 C 135.507812 19.4375 138.203125 12.726562 143.253906 7.675781 C 153.375 -2.445312 169.84375 -2.445312 179.960938 7.675781 C 180.566406 8.277344 181.148438 8.921875 181.695312 9.589844 C 182.050781 10.015625 182.160156 10.597656 181.988281 11.125 C 181.816406 11.65625 181.390625 12.0625 180.851562 12.207031 L 163.398438 16.882812 L 160 26.460938 L 167.730469 33.058594 L 185.1875 28.378906 C 185.726562 28.238281 186.296875 28.375 186.707031 28.75 C 187.121094 29.121094 187.316406 29.675781 187.226562 30.226562 C 186.347656 35.617188 183.835938 40.511719 179.960938 44.386719 C 174.917969 49.4375 168.203125 52.132812 161.0625 51.984375 C 154.898438 51.855469 150.085938 54.035156 144.976562 59.289062 L 96.859375 107.402344 C 91.59375 112.527344 89.410156 117.339844 89.539062 123.503906 C 89.691406 130.644531 86.992188 137.355469 81.945312 142.40625 C 77.039062 147.308594 70.523438 150.011719 63.585938 150.011719 Z M 63.585938 150.011719 " fill-opacity="1" fill-rule="evenodd"/></g><path fill="#ffffff" d="M 59.480469 133.964844 L 67.691406 133.964844 L 73.503906 128.160156 L 73.503906 119.945312 L 67.691406 114.136719 L 59.480469 114.136719 L 53.675781 119.945312 L 53.675781 128.160156 Z M 68.371094 137.238281 L 58.804688 137.238281 C 58.371094 137.238281 57.953125 137.066406 57.648438 136.757812 L 50.878906 129.992188 C 50.570312 129.6875 50.402344 129.269531 50.402344 128.835938 L 50.402344 119.265625 C 50.402344 118.832031 50.570312 118.417969 50.878906 118.109375 L 57.648438 111.34375 C 57.953125 111.039062 58.371094 110.863281 58.804688 110.863281 L 68.371094 110.863281 C 68.808594 110.863281 69.222656 111.039062 69.53125 111.34375 L 76.296875 118.109375 C 76.601562 118.417969 76.777344 118.832031 76.777344 119.265625 L 76.777344 128.835938 C 76.777344 129.269531 76.601562 129.6875 76.296875 129.992188 L 69.53125 136.757812 C 69.222656 137.066406 68.808594 137.238281 68.371094 137.238281 Z M 68.371094 137.238281 " fill-opacity="1" fill-rule="evenodd"/><path fill="#ffffff" d="M 80.332031 108.945312 C 79.910156 108.945312 79.492188 108.785156 79.171875 108.464844 C 78.535156 107.828125 78.535156 106.792969 79.171875 106.152344 L 143.710938 41.613281 C 144.347656 40.972656 145.386719 40.972656 146.027344 41.613281 C 146.664062 42.25 146.664062 43.289062 146.027344 43.929688 L 81.488281 108.464844 C 81.164062 108.785156 80.746094 108.945312 80.332031 108.945312 Z M 80.332031 108.945312 " fill-opacity="1" fill-rule="evenodd"/><g clip-path="url(#ac5f016664)"><path fill="#ffffff" d="M 98.128906 76.839844 C 97.710938 76.839844 97.296875 76.679688 96.972656 76.359375 L 79.917969 59.300781 C 74.792969 54.035156 69.988281 51.859375 63.816406 51.984375 C 56.675781 52.132812 49.960938 49.4375 44.914062 44.386719 C 41.042969 40.511719 38.53125 35.617188 37.652344 30.226562 C 37.5625 29.675781 37.757812 29.121094 38.167969 28.75 C 38.582031 28.375 39.152344 28.238281 39.691406 28.378906 L 57.144531 33.058594 L 64.875 26.460938 L 61.480469 16.882812 L 44.023438 12.207031 C 43.484375 12.0625 43.058594 11.65625 42.890625 11.125 C 42.71875 10.597656 42.832031 10.015625 43.183594 9.589844 C 43.726562 8.921875 44.3125 8.277344 44.914062 7.675781 C 55.035156 -2.445312 71.503906 -2.445312 81.621094 7.675781 C 86.671875 12.722656 89.371094 19.4375 89.21875 26.578125 C 89.089844 32.746094 91.277344 37.554688 96.523438 42.664062 L 113.59375 59.734375 C 114.234375 60.375 114.234375 61.414062 113.59375 62.050781 C 112.957031 62.691406 111.921875 62.691406 111.28125 62.050781 L 94.226562 44.992188 C 88.359375 39.28125 85.800781 33.578125 85.945312 26.511719 C 86.078125 20.269531 83.71875 14.402344 79.3125 9.988281 C 70.546875 1.230469 56.34375 1.144531 47.480469 9.746094 L 63.15625 13.941406 C 63.679688 14.082031 64.09375 14.472656 64.277344 14.980469 L 68.339844 26.429688 C 68.566406 27.066406 68.375 27.78125 67.859375 28.21875 L 58.617188 36.105469 C 58.207031 36.453125 57.652344 36.582031 57.128906 36.441406 L 41.445312 32.238281 C 42.492188 35.945312 44.464844 39.304688 47.230469 42.070312 C 51.640625 46.484375 57.503906 48.84375 63.746094 48.710938 C 70.820312 48.558594 76.523438 51.117188 82.246094 57.003906 L 99.289062 74.042969 C 99.925781 74.683594 99.925781 75.71875 99.289062 76.359375 C 98.96875 76.679688 98.550781 76.839844 98.128906 76.839844 Z M 161.289062 150.011719 C 154.355469 150.011719 147.835938 147.308594 142.933594 142.40625 C 137.882812 137.359375 135.1875 130.644531 135.335938 123.503906 C 135.464844 117.339844 133.285156 112.527344 128.03125 107.417969 L 111.28125 90.667969 C 110.640625 90.023438 110.640625 88.988281 111.28125 88.351562 C 111.921875 87.710938 112.957031 87.710938 113.59375 88.351562 L 130.335938 105.085938 C 136.203125 110.796875 138.761719 116.503906 138.609375 123.574219 C 138.480469 129.8125 140.835938 135.679688 145.25 140.089844 C 149.53125 144.375 155.230469 146.738281 161.289062 146.738281 C 167.347656 146.734375 173.042969 144.375 177.332031 140.089844 C 186.175781 131.246094 186.175781 116.855469 177.332031 108.007812 C 172.917969 103.601562 167.054688 101.246094 160.808594 101.375 C 153.75 101.527344 148.039062 98.960938 142.308594 93.082031 L 125.585938 76.359375 C 124.949219 75.71875 124.949219 74.683594 125.585938 74.042969 C 126.230469 73.40625 127.265625 73.40625 127.902344 74.042969 L 144.640625 90.777344 C 149.765625 96.042969 154.585938 98.226562 160.742188 98.101562 C 167.882812 97.949219 174.59375 100.648438 179.644531 105.699219 C 189.765625 115.816406 189.765625 132.285156 179.644531 142.40625 C 174.742188 147.308594 168.222656 150.011719 161.289062 150.011719 Z M 161.289062 150.011719 " fill-opacity="1" fill-rule="evenodd"/></g><path fill="#ffffff" d="M 151.378906 128.160156 L 157.183594 133.964844 L 165.394531 133.964844 L 171.203125 128.160156 L 171.203125 119.945312 L 165.394531 114.136719 L 157.183594 114.136719 L 151.378906 119.945312 Z M 156.507812 137.238281 C 156.074219 137.238281 155.652344 137.066406 155.347656 136.757812 L 148.582031 129.992188 C 148.273438 129.6875 148.105469 129.269531 148.105469 128.835938 L 148.105469 119.265625 C 148.105469 118.832031 148.273438 118.417969 148.582031 118.109375 L 155.347656 111.34375 C 155.652344 111.039062 156.074219 110.863281 156.507812 110.863281 L 166.074219 110.863281 C 166.507812 110.863281 166.921875 111.039062 167.230469 111.34375 L 174 118.109375 C 174.304688 118.417969 174.476562 118.832031 174.476562 119.265625 L 174.476562 128.835938 C 174.476562 129.269531 174.304688 129.6875 174 129.992188 L 167.230469 136.757812 C 166.921875 137.066406 166.507812 137.238281 166.074219 137.238281 Z M 156.507812 137.238281 " fill-opacity="1" fill-rule="evenodd"/><path fill="#ffffff" d="M 105.285156 69.683594 C 104.863281 69.683594 104.449219 69.523438 104.128906 69.203125 L 78.851562 43.929688 C 78.214844 43.289062 78.214844 42.25 78.851562 41.613281 C 79.492188 40.972656 80.527344 40.972656 81.164062 41.613281 L 106.445312 66.886719 C 107.082031 67.527344 107.082031 68.566406 106.445312 69.203125 C 106.125 69.523438 105.703125 69.683594 105.285156 69.683594 Z M 144.550781 108.945312 C 144.132812 108.945312 143.710938 108.785156 143.390625 108.464844 L 118.4375 83.511719 C 117.796875 82.871094 117.796875 81.835938 118.4375 81.195312 C 119.074219 80.558594 120.109375 80.558594 120.75 81.195312 L 145.707031 106.15625 C 146.34375 106.792969 146.34375 107.828125 145.707031 108.464844 C 145.386719 108.785156 144.964844 108.945312 144.550781 108.945312 Z M 144.550781 108.945312 " fill-opacity="1" fill-rule="evenodd"/></svg>