<svg xmlns="http://www.w3.org/2000/svg" xmlns:xlink="http://www.w3.org/1999/xlink" width="300" zoomAndPan="magnify" viewBox="0 0 224.87999 149.999998" height="200" preserveAspectRatio="xMidYMid meet" version="1.0"><defs><clipPath id="4b4e8e6647"><path d="M 0 0.0390625 L 224.761719 0.0390625 L 224.761719 149.960938 L 0 149.960938 Z M 0 0.0390625 " clip-rule="nonzero"/></clipPath><clipPath id="ace3ca8256"><path d="M 37 0.0390625 L 188 0.0390625 L 188 149.960938 L 37 149.960938 Z M 37 0.0390625 " clip-rule="nonzero"/></clipPath></defs><g clip-path="url(#4b4e8e6647)"><path fill="#ffffff" d="M 0 0.0390625 L 224.878906 0.0390625 L 224.878906 149.960938 L 0 149.960938 Z M 0 0.0390625 " fill-opacity="1" fill-rule="nonzero"/><path fill="#ffffff" d="M 0 0.0390625 L 224.878906 0.0390625 L 224.878906 149.960938 L 0 149.960938 Z M 0 0.0390625 " fill-opacity="1" fill-rule="nonzero"/></g><path fill="#ffffff" d="M 127.386719 74.988281 C 127.386719 75.972656 127.289062 76.945312 127.097656 77.910156 C 126.90625 78.875 126.625 79.808594 126.246094 80.71875 C 125.871094 81.625 125.410156 82.488281 124.863281 83.304688 C 124.316406 84.121094 123.699219 84.878906 123.003906 85.574219 C 122.308594 86.265625 121.550781 86.886719 120.734375 87.433594 C 119.917969 87.980469 119.054688 88.441406 118.148438 88.816406 C 117.238281 89.191406 116.304688 89.476562 115.339844 89.667969 C 114.375 89.859375 113.402344 89.957031 112.417969 89.957031 C 111.4375 89.957031 110.464844 89.859375 109.5 89.667969 C 108.535156 89.476562 107.601562 89.191406 106.691406 88.816406 C 105.785156 88.441406 104.921875 87.980469 104.105469 87.433594 C 103.289062 86.886719 102.53125 86.265625 101.835938 85.574219 C 101.140625 84.878906 100.519531 84.121094 99.976562 83.304688 C 99.429688 82.488281 98.96875 81.625 98.59375 80.71875 C 98.214844 79.808594 97.933594 78.875 97.742188 77.910156 C 97.546875 76.945312 97.453125 75.972656 97.453125 74.988281 C 97.453125 74.007812 97.546875 73.035156 97.742188 72.070312 C 97.933594 71.105469 98.214844 70.167969 98.59375 69.261719 C 98.96875 68.355469 99.429688 67.492188 99.976562 66.675781 C 100.519531 65.855469 101.140625 65.101562 101.835938 64.40625 C 102.53125 63.710938 103.289062 63.089844 104.105469 62.546875 C 104.921875 62 105.785156 61.539062 106.691406 61.160156 C 107.601562 60.785156 108.535156 60.5 109.5 60.308594 C 110.464844 60.117188 111.4375 60.023438 112.417969 60.023438 C 113.402344 60.023438 114.375 60.117188 115.339844 60.308594 C 116.304688 60.5 117.238281 60.785156 118.148438 61.160156 C 119.054688 61.539062 119.917969 62 120.734375 62.546875 C 121.550781 63.089844 122.308594 63.710938 123.003906 64.40625 C 123.699219 65.101562 124.316406 65.855469 124.863281 66.675781 C 125.410156 67.492188 125.871094 68.355469 126.246094 69.261719 C 126.625 70.167969 126.90625 71.105469 127.097656 72.070312 C 127.289062 73.035156 127.386719 74.007812 127.386719 74.988281 Z M 127.386719 74.988281 " fill-opacity="1" fill-rule="nonzero"/><path fill="#ffffff" d="M 107.941406 135.65625 C 107.941406 136.367188 107.871094 137.070312 107.730469 137.765625 C 107.59375 138.460938 107.390625 139.136719 107.117188 139.792969 C 106.847656 140.449219 106.511719 141.070312 106.117188 141.660156 C 105.722656 142.25 105.277344 142.796875 104.773438 143.296875 C 104.273438 143.800781 103.726562 144.25 103.136719 144.640625 C 102.546875 145.035156 101.925781 145.371094 101.269531 145.640625 C 100.613281 145.914062 99.9375 146.117188 99.242188 146.257812 C 98.546875 146.394531 97.84375 146.464844 97.132812 146.464844 C 96.425781 146.464844 95.722656 146.394531 95.027344 146.257812 C 94.328125 146.117188 93.652344 145.914062 93 145.640625 C 92.34375 145.371094 91.71875 145.035156 91.128906 144.640625 C 90.539062 144.25 89.992188 143.800781 89.492188 143.296875 C 88.992188 142.796875 88.542969 142.25 88.148438 141.660156 C 87.753906 141.070312 87.421875 140.449219 87.148438 139.792969 C 86.878906 139.136719 86.671875 138.460938 86.535156 137.765625 C 86.398438 137.070312 86.328125 136.367188 86.328125 135.65625 C 86.328125 134.949219 86.398438 134.246094 86.535156 133.550781 C 86.671875 132.851562 86.878906 132.175781 87.148438 131.523438 C 87.421875 130.867188 87.753906 130.242188 88.148438 129.652344 C 88.542969 129.0625 88.992188 128.519531 89.492188 128.015625 C 89.992188 127.515625 90.539062 127.066406 91.128906 126.671875 C 91.71875 126.277344 92.34375 125.945312 93 125.671875 C 93.652344 125.402344 94.328125 125.195312 95.027344 125.058594 C 95.722656 124.921875 96.425781 124.851562 97.132812 124.851562 C 97.84375 124.851562 98.546875 124.921875 99.242188 125.058594 C 99.9375 125.195312 100.613281 125.402344 101.269531 125.671875 C 101.925781 125.945312 102.546875 126.277344 103.136719 126.671875 C 103.726562 127.066406 104.273438 127.515625 104.773438 128.015625 C 105.277344 128.519531 105.722656 129.0625 106.117188 129.652344 C 106.511719 130.242188 106.847656 130.867188 107.117188 131.523438 C 107.390625 132.175781 107.59375 132.851562 107.730469 133.550781 C 107.871094 134.246094 107.941406 134.949219 107.941406 135.65625 Z M 107.941406 135.65625 " fill-opacity="1" fill-rule="nonzero"/><path fill="#ffffff" d="M 60.230469 63.351562 C 60.230469 64.0625 60.164062 64.761719 60.023438 65.460938 C 59.886719 66.15625 59.679688 66.832031 59.410156 67.488281 C 59.136719 68.140625 58.804688 68.765625 58.410156 69.355469 C 58.015625 69.945312 57.570312 70.492188 57.066406 70.992188 C 56.566406 71.496094 56.019531 71.941406 55.429688 72.335938 C 54.839844 72.730469 54.214844 73.0625 53.5625 73.335938 C 52.90625 73.605469 52.230469 73.8125 51.535156 73.949219 C 50.839844 74.089844 50.136719 74.15625 49.425781 74.15625 C 48.714844 74.15625 48.011719 74.089844 47.316406 73.949219 C 46.621094 73.8125 45.945312 73.605469 45.289062 73.335938 C 44.636719 73.0625 44.011719 72.730469 43.421875 72.335938 C 42.832031 71.941406 42.285156 71.496094 41.785156 70.992188 C 41.28125 70.492188 40.835938 69.945312 40.441406 69.355469 C 40.046875 68.765625 39.714844 68.140625 39.441406 67.488281 C 39.171875 66.832031 38.964844 66.15625 38.828125 65.460938 C 38.6875 64.761719 38.621094 64.0625 38.621094 63.351562 C 38.621094 62.640625 38.6875 61.9375 38.828125 61.242188 C 38.964844 60.546875 39.171875 59.871094 39.441406 59.214844 C 39.714844 58.558594 40.046875 57.9375 40.441406 57.347656 C 40.835938 56.757812 41.28125 56.210938 41.785156 55.710938 C 42.285156 55.207031 42.832031 54.761719 43.421875 54.367188 C 44.011719 53.972656 44.636719 53.640625 45.289062 53.367188 C 45.945312 53.097656 46.621094 52.890625 47.316406 52.753906 C 48.011719 52.613281 48.714844 52.546875 49.425781 52.546875 C 50.136719 52.546875 50.839844 52.613281 51.535156 52.753906 C 52.230469 52.890625 52.90625 53.097656 53.5625 53.367188 C 54.214844 53.640625 54.839844 53.972656 55.429688 54.367188 C 56.019531 54.761719 56.566406 55.207031 57.066406 55.710938 C 57.570312 56.210938 58.015625 56.757812 58.410156 57.347656 C 58.804688 57.9375 59.136719 58.558594 59.410156 59.214844 C 59.679688 59.871094 59.886719 60.546875 60.023438 61.242188 C 60.164062 61.9375 60.230469 62.640625 60.230469 63.351562 Z M 60.230469 63.351562 " fill-opacity="1" fill-rule="nonzero"/><path fill="#ffffff" d="M 170.785156 40.523438 C 176.742188 40.523438 181.589844 35.675781 181.589844 29.71875 C 181.589844 23.761719 176.742188 18.914062 170.785156 18.914062 C 164.824219 18.914062 159.976562 23.761719 159.976562 29.71875 C 159.976562 35.675781 164.824219 40.523438 170.785156 40.523438 Z M 170.785156 40.523438 " fill-opacity="1" fill-rule="nonzero"/><g clip-path="url(#ace3ca8256)"><path fill="#ffffff" d="M 169.234375 74.988281 C 171.117188 73.140625 172.886719 71.28125 174.527344 69.425781 C 185.957031 56.46875 189.886719 44.828125 185.597656 36.640625 C 185.4375 36.339844 185.269531 36.042969 185.089844 35.753906 C 184.359375 37.476562 183.324219 39.039062 182.054688 40.382812 C 184.042969 46.664062 180.101562 55.96875 170.988281 66.304688 C 169.382812 68.121094 167.652344 69.9375 165.800781 71.75 C 158.824219 65.398438 150.515625 59.199219 141.300781 53.464844 C 140.527344 46.824219 139.390625 40.503906 137.921875 34.664062 C 144.109375 33.0625 149.984375 31.996094 155.367188 31.519531 C 155.296875 30.929688 155.257812 30.328125 155.257812 29.71875 C 155.257812 28.710938 155.359375 27.730469 155.542969 26.777344 C 149.734375 27.253906 143.375 28.390625 136.6875 30.125 C 135.9375 27.582031 135.121094 25.148438 134.238281 22.839844 C 128.625 8.15625 120.875 0.0703125 112.417969 0.0703125 C 103.960938 0.0703125 96.214844 8.15625 90.601562 22.839844 C 89.71875 25.136719 88.90625 27.5625 88.160156 30.097656 C 82.710938 28.6875 77.457031 27.671875 72.5 27.085938 C 55.347656 25.058594 43.535156 28.453125 39.242188 36.640625 C 37.585938 39.800781 37.15625 43.5 37.925781 47.605469 C 38.234375 49.257812 38.742188 50.976562 39.4375 52.753906 C 40.660156 51.726562 42.039062 50.882812 43.535156 50.265625 C 42.8125 48.269531 42.324219 46.195312 42.269531 44.179688 C 42.222656 42.3125 42.550781 40.492188 43.421875 38.832031 C 46.691406 32.589844 57.089844 30.019531 71.949219 31.773438 C 76.683594 32.332031 81.707031 33.304688 86.921875 34.648438 C 85.449219 40.492188 84.3125 46.816406 83.539062 53.464844 C 78.441406 56.636719 73.625 59.949219 69.15625 63.351562 L 59.042969 71.746094 L 55.609375 74.984375 C 53.722656 76.835938 51.953125 78.695312 50.3125 80.554688 C 38.882812 93.507812 34.953125 105.152344 39.242188 113.339844 C 42.722656 119.976562 51.148438 123.464844 63.359375 123.464844 C 66.207031 123.464844 69.257812 123.273438 72.5 122.890625 C 77.457031 122.308594 82.710938 121.289062 88.15625 119.882812 C 88.417969 120.757812 88.683594 121.617188 88.957031 122.464844 C 90.292969 121.636719 91.761719 121 93.328125 120.605469 C 93.121094 119.953125 92.917969 119.296875 92.71875 118.625 C 99.113281 116.753906 105.730469 114.371094 112.417969 111.527344 C 119.121094 114.378906 125.753906 116.765625 132.160156 118.636719 C 127.199219 135.347656 119.660156 145.191406 112.417969 145.191406 C 111.515625 145.191406 110.609375 145.042969 109.707031 144.75 C 108.699219 146.136719 107.46875 147.351562 106.070312 148.34375 C 108.125 149.382812 110.25 149.910156 112.417969 149.910156 C 120.875 149.910156 128.625 141.824219 134.238281 127.140625 C 135.117188 124.839844 135.933594 122.414062 136.679688 119.882812 C 142.125 121.289062 147.378906 122.308594 152.339844 122.890625 C 155.582031 123.273438 158.632812 123.464844 161.476562 123.464844 C 173.691406 123.464844 182.117188 119.976562 185.597656 113.339844 C 189.886719 105.152344 185.957031 93.507812 174.527344 80.554688 C 172.886719 78.695312 171.117188 76.839844 169.234375 74.988281 Z M 82.949219 59.425781 C 82.535156 64.488281 82.320312 69.695312 82.320312 74.988281 C 82.320312 80.289062 82.53125 85.488281 82.941406 90.535156 C 75.339844 85.597656 68.414062 80.332031 62.492188 74.984375 C 68.410156 69.625 75.320312 64.375 82.949219 59.425781 Z M 71.949219 118.207031 C 57.089844 119.960938 46.691406 117.386719 43.421875 111.148438 C 40.152344 104.90625 43.953125 94.894531 53.851562 83.675781 C 55.457031 81.855469 57.191406 80.039062 59.042969 78.222656 C 66.023438 84.566406 74.359375 90.78125 83.53125 96.5 C 84.304688 103.160156 85.441406 109.488281 86.914062 115.332031 C 81.703125 116.675781 76.679688 117.644531 71.949219 118.207031 Z M 141.890625 59.425781 C 149.523438 64.375 156.433594 69.632812 162.355469 74.988281 C 156.433594 80.347656 149.523438 85.601562 141.890625 90.550781 C 142.304688 85.492188 142.519531 80.28125 142.519531 74.988281 C 142.519531 69.695312 142.304688 64.488281 141.890625 59.425781 Z M 136.175781 50.378906 C 133.433594 48.78125 130.625 47.226562 127.757812 45.722656 C 124.644531 44.089844 121.519531 42.550781 118.402344 41.105469 C 123.5 39.082031 128.53125 37.339844 133.410156 35.90625 C 134.519531 40.339844 135.457031 45.179688 136.175781 50.378906 Z M 112.417969 4.789062 C 119.664062 4.789062 127.210938 14.640625 132.171875 31.367188 C 125.773438 33.238281 119.136719 35.621094 112.4375 38.457031 C 105.726562 35.605469 99.089844 33.214844 92.675781 31.339844 C 97.640625 14.632812 105.179688 4.789062 112.417969 4.789062 Z M 91.433594 35.890625 C 96.328125 37.324219 101.367188 39.066406 106.46875 41.101562 C 103.335938 42.546875 100.199219 44.089844 97.082031 45.722656 C 94.214844 47.226562 91.40625 48.78125 88.664062 50.378906 C 89.382812 45.171875 90.320312 40.328125 91.433594 35.890625 Z M 91.484375 114.074219 C 90.359375 109.546875 89.429688 104.695312 88.71875 99.628906 C 91.449219 101.222656 94.242188 102.765625 97.082031 104.257812 C 100.203125 105.890625 103.332031 107.433594 106.460938 108.882812 C 101.378906 110.90625 96.363281 112.644531 91.484375 114.074219 Z M 133.40625 114.089844 C 128.511719 112.65625 123.480469 110.914062 118.378906 108.882812 C 121.503906 107.433594 124.636719 105.890625 127.757812 104.257812 C 130.625 102.753906 133.433594 101.199219 136.175781 99.601562 C 135.457031 104.804688 134.519531 109.652344 133.40625 114.089844 Z M 136.882812 93.691406 C 133.242188 95.898438 129.460938 98.035156 125.566406 100.078125 C 121.1875 102.371094 116.789062 104.480469 112.417969 106.390625 C 108.050781 104.480469 103.652344 102.371094 99.273438 100.078125 C 95.40625 98.050781 91.636719 95.917969 87.996094 93.707031 C 87.367188 87.652344 87.039062 81.359375 87.039062 74.988281 C 87.039062 68.398438 87.363281 62.144531 87.953125 56.289062 C 91.597656 54.078125 95.378906 51.945312 99.273438 49.902344 C 103.648438 47.609375 108.050781 45.503906 112.433594 43.59375 C 116.796875 45.503906 121.191406 47.609375 125.566406 49.902344 C 129.460938 51.945312 133.242188 54.078125 136.882812 56.289062 C 137.476562 62.144531 137.800781 68.398438 137.800781 74.988281 C 137.800781 81.582031 137.476562 87.832031 136.882812 93.691406 Z M 181.417969 111.148438 C 178.144531 117.386719 167.75 119.960938 152.890625 118.207031 C 148.15625 117.644531 143.132812 116.675781 137.917969 115.332031 C 139.386719 109.488281 140.523438 103.160156 141.300781 96.515625 C 150.515625 90.78125 158.824219 84.578125 165.800781 78.230469 C 167.652344 80.042969 169.382812 81.859375 170.988281 83.675781 C 180.886719 94.894531 184.6875 104.90625 181.417969 111.148438 Z M 181.417969 111.148438 " fill-opacity="1" fill-rule="nonzero"/></g></svg>